HIERARCHY
ROOT Hips
{
 OFFSET 0.000000 0.000000 0.000000
 CHANNELS 6 Xposition Yposition Zposition Yrotation Xrotation Zrotation
 JOINT Chest
 {
  OFFSET 0.000000 9.585900 0.002600
  CHANNELS 3 Yrotation Xrotation Zrotation
  JOINT Chest2
  {
   OFFSET 0.000000 9.601200 -0.005300
   CHANNELS 3 Yrotation Xrotation Zrotation
   JOINT Chest3
   {
    OFFSET 0.000000 9.561800 0.000000
    CHANNELS 3 Yrotation Xrotation Zrotation
    JOINT Chest4
    {
     OFFSET 0.000000 9.552100 0.000000
     CHANNELS 3 Yrotation Xrotation Zrotation
     JOINT Neck
     {
      OFFSET 0.000000 14.453000 0.000000
      CHANNELS 3 Yrotation Xrotation Zrotation
      JOINT Head
      {
       OFFSET 0.000000 8.936500 -0.011300
       CHANNELS 3 Yrotation Xrotation Zrotation
       End Site
       {
        OFFSET 0.000000 17.073600 -0.006000
       }
      }
     }
     JOINT RightCollar
     {
      OFFSET -2.921100 9.558500 0.000000
      CHANNELS 3 Yrotation Xrotation Zrotation
      JOINT RightShoulder
      {
       OFFSET -13.519700 0.000000 0.000000
       CHANNELS 3 Yrotation Xrotation Zrotation
       JOINT RightElbow
       {
        OFFSET 0.000000 -29.696600 0.000000
        CHANNELS 3 Yrotation Xrotation Zrotation
        JOINT RightWrist
        {
         OFFSET 0.000000 -24.004700 0.000000
         CHANNELS 3 Yrotation Xrotation Zrotation
         End Site
         {
          OFFSET 0.000000 -17.728500 0.000000
         }
        }
       }
      }
     }
     JOINT LeftCollar
     {
      OFFSET 2.921100 9.558500 0.000000
      CHANNELS 3 Yrotation Xrotation Zrotation
      JOINT LeftShoulder
      {
       OFFSET 13.519700 0.000000 0.000000
       CHANNELS 3 Yrotation Xrotation Zrotation
       JOINT LeftElbow
       {
        OFFSET 0.000000 -29.696600 0.000000
        CHANNELS 3 Yrotation Xrotation Zrotation
        JOINT LeftWrist
        {
         OFFSET 0.000000 -24.004700 0.000000
         CHANNELS 3 Yrotation Xrotation Zrotation
         End Site
         {
          OFFSET 0.000000 -17.728500 0.000000
         }
        }
       }
      }
     }
    }
   }
  }
 }
 JOINT RightHip
 {
  OFFSET -7.771700 -0.012900 -0.001300
  CHANNELS 3 Yrotation Xrotation Zrotation
  JOINT RightKnee
  {
   OFFSET 0.000000 -40.869800 0.001200
   CHANNELS 3 Yrotation Xrotation Zrotation
   JOINT RightAnkle
   {
    OFFSET 0.000000 -39.717900 0.002100
    CHANNELS 3 Yrotation Xrotation Zrotation
    JOINT RightToe
    {
     OFFSET 0.000000 -4.965400 11.033500
     CHANNELS 3 Yrotation Xrotation Zrotation
     End Site
     {
      OFFSET 0.000000 -1.423100 5.872300
     }
    }
   }
  }
 }
 JOINT LeftHip
 {
  OFFSET 7.771700 -0.012900 -0.001300
  CHANNELS 3 Yrotation Xrotation Zrotation
  JOINT LeftKnee
  {
   OFFSET 0.000000 -40.869800 0.001200
   CHANNELS 3 Yrotation Xrotation Zrotation
   JOINT LeftAnkle
   {
    OFFSET 0.000000 -39.717900 0.002100
    CHANNELS 3 Yrotation Xrotation Zrotation
    JOINT LeftToe
    {
     OFFSET 0.000000 -4.965400 11.033500
     CHANNELS 3 Yrotation Xrotation Zrotation
     End Site
     {
      OFFSET 0.000000 -1.423100 5.872300
     }
    }
   }
  }
 }
}
MOTION
Frames: 5
Frame Time: 0.008333
0.000000 85.388000 0.000000 0.000000 -5.767877 0.000000 0.000000 11.653817 0.000000 0.000000 -5.885947 0.000000 0.000000 -0.000000 0.000000 0.000000 -0.000000 0.000000 0.000000 12.528835 0.000000 0.000000 0.711642 0.000000 0.000000 -0.000000 0.000000 0.000000 0.000000 -90.000000 0.000000 -2.309062 0.000000 0.000000 2.309062 0.000000 0.000000 -0.000000 0.000000 0.000000 -0.000000 90.000000 0.000000 -2.309062 0.000000 0.000000 2.309062 0.000000 0.000000 8.520406 0.000000 0.000000 1.905762 0.000000 -0.000000 -4.658285 0.000000 0.000000 -0.000000 0.000000 0.000000 8.520406 0.000000 0.000000 1.905762 0.000000 -0.000000 -4.658285 0.000000 0.000000 -0.000000 0.000000
-248.464964 57.904339 148.727326 175.351584 -31.156328 -2.048828 1.532582 19.963671 3.285695 0.129927 2.508935 0.377551 0.216170 4.116768 0.618385 1.302076 17.172052 2.788732 -8.452333 13.939986 -2.288388 -14.991449 -9.633291 -1.023369 3.042150 -0.595585 -1.059324 14.991406 -24.611932 -25.761706 179.195581 -59.729239 -150.343166 16.544366 -1.631771 -19.286928 -6.348217 -3.341697 -3.787002 1.924123 -11.336098 -3.339839 39.356366 -22.912183 -75.070059 9.746086 -11.579104 2.362219 7.829676 -43.343891 -3.643611 -7.329307 64.939872 -8.799571 2.862517 24.527365 3.277401 -0.764768 -15.035482 5.892934 -9.072315 -42.634762 5.358756 28.031914 68.285997 27.855219 -12.946846 7.908585 -3.016146 -0.032157 -0.074155 -0.037044
-248.463208 57.902313 148.729401 175.357339 -31.159118 -2.051874 1.572609 19.959812 3.315665 0.094751 2.512508 0.366754 0.226570 4.116387 0.623405 1.333329 17.177014 2.804495 -8.492344 13.964003 -2.280864 -15.049127 -9.496699 -0.988275 3.089116 -0.607493 -1.038044 15.602444 -24.695853 -26.183078 -179.660673 -60.086723 -151.008333 16.818607 -2.523190 -20.834476 -6.437296 -3.360936 -3.812721 1.749970 -11.436879 -3.368010 39.775319 -22.279234 -75.622366 10.081516 -11.367131 1.465341 7.835640 -43.344968 -3.646876 -7.266395 64.946666 -8.740561 2.841389 24.541810 3.284375 -0.773389 -15.048483 5.894271 -9.088410 -42.633587 5.369792 28.025132 68.286128 27.844622 -12.952409 7.913208 -3.023901 -0.026555 -0.068749 -0.030867
-248.461853 57.899799 148.732345 175.360735 -31.159798 -2.050981 1.611464 19.947434 3.334871 0.094138 2.526697 0.374302 0.282870 4.096350 0.631849 1.308767 17.169132 2.802975 -8.535180 14.051299 -2.250279 -15.120432 -9.405155 -0.957075 3.111150 -0.592736 -1.001095 16.193570 -24.777833 -26.570135 -179.202916 -60.267047 -151.118163 17.111090 -3.504390 -22.561323 -6.560403 -3.347858 -3.818137 1.614990 -11.526375 -3.410848 40.063168 -21.725587 -76.075260 10.286059 -11.150567 0.714866 7.869692 -43.354464 -3.664811 -7.283688 64.955995 -8.744258 2.839714 24.567451 3.288478 -0.773299 -15.072037 5.898366 -9.097070 -42.634271 5.376900 28.009612 68.286167 27.823296 -12.954128 7.916643 -3.027174 -0.023037 -0.057309 -0.022230
-248.461331 57.897553 148.735126 175.369306 -31.164830 -2.048883 1.650583 19.936224 3.349271 0.143149 2.505660 0.380865 0.243712 4.108837 0.628488 1.355461 17.150786 2.813063 -8.600174 14.125551 -2.225892 -15.186105 -9.288769 -0.923783 3.101981 -0.561769 -0.955115 16.754727 -24.859443 -26.935966 -179.375409 -60.293741 -150.710180 17.445734 -4.580880 -24.573261 -6.706201 -3.307085 -3.806344 1.520840 -11.616154 -3.467200 40.254847 -21.207349 -76.461128 10.357217 -10.960011 0.151057 7.873179 -43.352528 -3.674022 -7.279151 64.957987 -8.740274 2.844072 24.583297 3.290546 -0.773395 -15.086198 5.900618 -9.104543 -42.632198 5.377642 27.998376 68.289125 27.805155 -12.956408 7.917780 -3.026920 -0.016523 -0.051492 -0.018991
